<svg xmlns="http://www.w3.org/2000/svg" xml:space="preserve" width="800" height="1080" viewBox="0 0 1080 1080"><path d="M181.818 56.296a10.8 10.8 0 0 1 2.511 3.947q.838 2.273.838 5.024v17.702q0 3.11-1.196 5.86-1.197 2.752-3.23 4.785t-4.784 3.23q-2.752 1.195-5.86 1.195h-17.942q-1.675 0-1.675-1.674V15.988q0-1.674 1.675-1.674h17.941q3.11 0 5.86 1.196 2.753 1.196 4.785 3.23t3.23 4.784q1.196 2.75 1.196 5.86v11.961q0 5.502-3.35 9.21-1.792 1.913-4.305 3.11 2.631.957 4.306 2.631m-10.645 7.057q0-1.196-.838-2.033a2.77 2.77 0 0 0-2.033-.838h-3.827v24.76h3.827q1.196 0 2.033-.838a2.77 2.77 0 0 0 .838-2.033zm0-33.37v14.592q0 1.196-.838 2.033a2.77 2.77 0 0 1-2.033.837h-3.827V27.112h3.827q1.196 0 2.033.837.838.837.838 2.033m52.82-15.67q1.674 0 1.674 1.675v67.818q0 3.11-1.196 5.86-1.197 2.752-3.23 4.785t-4.784 3.23q-2.752 1.195-5.86 1.195h-4.546q-3.11 0-5.86-1.196-2.753-1.195-4.785-3.229-2.034-2.033-3.23-4.784t-1.196-5.861V15.988q0-1.674 1.675-1.674H203.3q1.675 0 1.675 1.674v67.22q0 1.196.837 2.033a2.77 2.77 0 0 0 2.033.837h.957q1.196 0 2.033-.837a2.77 2.77 0 0 0 .838-2.033v-67.22q0-1.674 1.674-1.674zm36.744 69.732q1.675 0 1.675 1.675v10.645q0 1.674-1.675 1.674h-27.15q-1.675 0-1.675-1.674V15.988q0-1.674 1.674-1.674h10.645q1.675 0 1.675 1.674v68.057zm35.55 0q1.674 0 1.674 1.675v10.645q0 1.674-1.675 1.674h-27.15q-1.675 0-1.675-1.674V15.988q0-1.674 1.674-1.674h10.645q1.675 0 1.675 1.674v68.057z" style="stroke:none;stroke-width:1;stroke-dasharray:none;stroke-linecap:butt;stroke-dashoffset:0;stroke-linejoin:miter;stroke-miterlimit:4;fill:#009bff;fill-rule:evenodd;opacity:1" transform="translate(35.793 194.826)scale(6.94)" vector-effect="non-scaling-stroke"/><path d="M128.617 54.822c17.073-3.95 19.78 16.506 17.357 13.996-3.757-3.89-7.437-7.147-13.075-5.896-2.93.651-5.462.124-6.894-2.46-1.596-2.883.869-5.238 2.612-5.64M133 64.205c.061.21.108.417.128.611.284 3.414.398 4.74-3.159 8.718-3.553 3.98-10.343 11.614-10.343 11.614s-7.963 5.26-7.963 0c0-6.979-.21-12.512-.141-13.79.141-2.697-3.443-1.853-5.051-1.406-1.506.417-3.78.831-3.78 3.959 0 3.127-.471 16.229-.471 16.229s.414 1.89 2.335 3.537c2.047 1.757 2.183 3.906.616 3.906-1.563 0-9.414.547-10.004-.208-1.559-1.994-.62-25.35-1.47-26.3-.848-.949-1.905-.837-3.75-1.121-1.849-.285-3.35 2.286-4.629 4.135-1.28 1.847-13.098 17.296-12.955 19.004.141 1.706 1.633 1.927 2.418 2.714 1.04 1.045 3.008 3.558.625 3.558-4.408 0-8.298.204-8.592-.15-.294-.355-.782-6.399-.649-7.387.133-.984 9.616-19.214 9.098-21.04-.518-1.825-11.263-5.972-14.52-5.972-2.61 0-6.237 7.253-7.09 8.532-.853 1.28-3.412 5.83-3.412 7.678 0 1.853.773 2.343 2.763 4.334s7.869 7.78 9.206 9.44c1.947 2.422 1.97 4.212-.31 4.281-3.14.092-6.266.347-7.296-.084-2.182-.918-.374-3.65-1.05-4.422-.995-1.139-17.389-7.153-17.246-9.57.141-2.416 1.304-5.74-1.539-7.73-1.953-1.366-5.014-1.88-8.202.886-2.257 1.955-4.602 2.477-5.545 5.548-.502 1.629-1.235 6.407.708 6.96 2.48.71 4.068 5.432 2.535 5.432H13.233c-1.602 0 .172-5.436.133-9.073-.035-3.33-1.492-5.149-2.79-7.216-1.3-2.07-3.03-7.176-1.947-8.26 1.917-1.916 5.072.659 7.206-1.189 2.131-1.847 0-21.184 0-22.747 0-.137.015-.331.037-.549-1.047-.158-2.43-.643-3.792-1.949-2.747-2.627-8.994-7.857-10.189-10.006-1.192-2.149-3.582-4.776 0-8.835 3.583-4.059 7.88-8.12 9.195-9.553 1.313-1.433 2.545-2.723 4.933-2.604 2.388.12 15.382.245 15.965-.023 2.255-1.037 2.625-2.388 2.745-3.583.12-1.192-.36-2.745-1.434-2.984-1.074-.24-2.149-1.192-2.984 0-.837 1.194-1.806-.151-5.269-.986-3.463-.836-5.717-1.522-5.956-2.835s4.523-2.061 5.956-2.657S28.64-.35 29.952.248c1.312.596.475 1.313 1.312 2.149.837.835 6.667 2.063 6.308 7.914s-2.08 7.329-7.812 7.274c-2.14-.022-13.441-.56-14.341.257-1.455 1.323-6.76 8.108-7.324 8.95-1.158 1.738-2.184 3.426-.727 4.968 1.04 1.1 3.359 2.876 3.957 3.474.598.596 5.168 2.543 7.482 2.424 1.857-.955 9.822-4.116 9.822-4.116S70 15.772 73.269 15.06c3.271-.712 14.503-5.83 24.881 2.843s30.422 28.433 31.136 29.147c.582.58 3.702 4.311 4.22 6.206-1.766-.051-3.685.129-5.783.615-2.167.502-5.247 3.438-3.255 7.028 1.776 3.204 4.908 3.866 8.531 3.306" style="stroke:none;stroke-width:1;stroke-dasharray:none;stroke-linecap:butt;stroke-dashoffset:0;stroke-linejoin:miter;stroke-miterlimit:4;fill:#16347e;fill-rule:nonzero;opacity:1" transform="translate(30.812 194.874)scale(6.94)" vector-effect="non-scaling-stroke"/></svg>